<mxfile host="app.diagrams.net" modified="2023-07-24T08:39:02.610Z" agent="Mozilla/5.0 (Windows NT 10.0; Win64; x64) AppleWebKit/537.36 (KHTML, like Gecko) Chrome/114.0.0.0 Safari/537.36" etag="_AVYHFSZFr8rDz60_crB" version="21.6.5" type="github">
  <diagram name="Página-1" id="x5haFS3aiQrVRmsrRlWK">
    <mxGraphModel dx="847" dy="756" grid="1" gridSize="10" guides="1" tooltips="1" connect="1" arrows="1" fold="1" page="1" pageScale="1" pageWidth="827" pageHeight="1169" math="0" shadow="0">
      <root>
        <mxCell id="0" />
        <mxCell id="1" parent="0" />
        <mxCell id="I_QD7ZlSUtDPus4ScpUU-10" style="edgeStyle=orthogonalEdgeStyle;rounded=0;sketch=1;hachureGap=4;jiggle=2;curveFitting=1;orthogonalLoop=1;jettySize=auto;html=1;entryX=0.5;entryY=0;entryDx=0;entryDy=0;fontFamily=Architects Daughter;fontSource=https%3A%2F%2Ffonts.googleapis.com%2Fcss%3Ffamily%3DArchitects%2BDaughter;fontSize=16;" edge="1" parent="1" source="I_QD7ZlSUtDPus4ScpUU-1" target="I_QD7ZlSUtDPus4ScpUU-9">
          <mxGeometry relative="1" as="geometry" />
        </mxCell>
        <mxCell id="I_QD7ZlSUtDPus4ScpUU-1" value="Maquina 0" style="shape=parallelogram;perimeter=parallelogramPerimeter;whiteSpace=wrap;html=1;fixedSize=1;" vertex="1" parent="1">
          <mxGeometry x="1140" y="140" width="120" height="60" as="geometry" />
        </mxCell>
        <mxCell id="I_QD7ZlSUtDPus4ScpUU-6" value="Control Plane" style="shape=parallelogram;perimeter=parallelogramPerimeter;whiteSpace=wrap;html=1;fixedSize=1;" vertex="1" parent="1">
          <mxGeometry x="860" y="460" width="120" height="60" as="geometry" />
        </mxCell>
        <mxCell id="I_QD7ZlSUtDPus4ScpUU-7" value="Node 1" style="shape=parallelogram;perimeter=parallelogramPerimeter;whiteSpace=wrap;html=1;fixedSize=1;" vertex="1" parent="1">
          <mxGeometry x="1150" y="460" width="120" height="60" as="geometry" />
        </mxCell>
        <mxCell id="I_QD7ZlSUtDPus4ScpUU-8" value="Node 2" style="shape=parallelogram;perimeter=parallelogramPerimeter;whiteSpace=wrap;html=1;fixedSize=1;" vertex="1" parent="1">
          <mxGeometry x="1400" y="460" width="120" height="60" as="geometry" />
        </mxCell>
        <mxCell id="I_QD7ZlSUtDPus4ScpUU-11" style="edgeStyle=orthogonalEdgeStyle;rounded=0;sketch=1;hachureGap=4;jiggle=2;curveFitting=1;orthogonalLoop=1;jettySize=auto;html=1;entryX=0.408;entryY=0.05;entryDx=0;entryDy=0;entryPerimeter=0;fontFamily=Architects Daughter;fontSource=https%3A%2F%2Ffonts.googleapis.com%2Fcss%3Ffamily%3DArchitects%2BDaughter;fontSize=16;" edge="1" parent="1" source="I_QD7ZlSUtDPus4ScpUU-9" target="I_QD7ZlSUtDPus4ScpUU-7">
          <mxGeometry relative="1" as="geometry" />
        </mxCell>
        <mxCell id="I_QD7ZlSUtDPus4ScpUU-12" style="edgeStyle=orthogonalEdgeStyle;rounded=0;sketch=1;hachureGap=4;jiggle=2;curveFitting=1;orthogonalLoop=1;jettySize=auto;html=1;entryX=0.567;entryY=-0.05;entryDx=0;entryDy=0;entryPerimeter=0;fontFamily=Architects Daughter;fontSource=https%3A%2F%2Ffonts.googleapis.com%2Fcss%3Ffamily%3DArchitects%2BDaughter;fontSize=16;" edge="1" parent="1" source="I_QD7ZlSUtDPus4ScpUU-9" target="I_QD7ZlSUtDPus4ScpUU-8">
          <mxGeometry relative="1" as="geometry" />
        </mxCell>
        <mxCell id="I_QD7ZlSUtDPus4ScpUU-13" style="edgeStyle=orthogonalEdgeStyle;rounded=0;sketch=1;hachureGap=4;jiggle=2;curveFitting=1;orthogonalLoop=1;jettySize=auto;html=1;entryX=0.5;entryY=0;entryDx=0;entryDy=0;fontFamily=Architects Daughter;fontSource=https%3A%2F%2Ffonts.googleapis.com%2Fcss%3Ffamily%3DArchitects%2BDaughter;fontSize=16;" edge="1" parent="1" source="I_QD7ZlSUtDPus4ScpUU-9" target="I_QD7ZlSUtDPus4ScpUU-6">
          <mxGeometry relative="1" as="geometry" />
        </mxCell>
        <mxCell id="I_QD7ZlSUtDPus4ScpUU-9" value="ANSIBLE" style="rhombus;whiteSpace=wrap;html=1;" vertex="1" parent="1">
          <mxGeometry x="1160" y="290" width="80" height="80" as="geometry" />
        </mxCell>
        <mxCell id="I_QD7ZlSUtDPus4ScpUU-14" value="&lt;h1&gt;Passo 1) - Pipeline após PR de cada repositório&lt;/h1&gt;&lt;p style=&quot;font-size: 13px;&quot;&gt;&lt;span style=&quot;background-color: initial;&quot;&gt;Criar pipeline para cada repositório com os seguintes passos em master:&lt;/span&gt;&lt;br&gt;&lt;/p&gt;&lt;p style=&quot;font-size: 13px;&quot;&gt;&lt;font style=&quot;font-size: 13px;&quot;&gt;&lt;span style=&quot;background-color: initial;&quot;&gt;a) Análise do Sonar&amp;nbsp;&lt;/span&gt;&lt;br&gt;&lt;/font&gt;&lt;/p&gt;&lt;p style=&quot;font-size: 13px;&quot;&gt;&lt;font style=&quot;font-size: 13px;&quot;&gt;b) Build + gerar imagem docker&amp;nbsp;&lt;/font&gt;&lt;/p&gt;" style="text;html=1;strokeColor=none;fillColor=none;spacing=5;spacingTop=-20;whiteSpace=wrap;overflow=hidden;rounded=0;" vertex="1" parent="1">
          <mxGeometry x="840" y="10" width="620" height="150" as="geometry" />
        </mxCell>
      </root>
    </mxGraphModel>
  </diagram>
</mxfile>
